<?xml version="1.0" standalone="no"?>
<!DOCTYPE svg PUBLIC "-//W3C//DTD SVG 20010904//EN"
 "http://www.w3.org/TR/2001/REC-SVG-20010904/DTD/svg10.dtd">
<svg version="1.0" xmlns="http://www.w3.org/2000/svg"
 width="3113.000000pt" height="775.000000pt" viewBox="0 0 3113.000000 775.000000"
 preserveAspectRatio="xMidYMid meet">
<metadata>
Created by potrace 1.16, written by Peter Selinger 2001-2019
</metadata>
<g transform="translate(0.000000,775.000000) scale(0.100000,-0.100000)"
fill="#000000" stroke="none">
<path d="M5023 6855 c-37 -30 -94 -120 -128 -203 -61 -150 -394 -714 -630
-1067 -308 -460 -584 -822 -1275 -1670 -451 -553 -710 -936 -926 -1365 -181
-361 -288 -683 -339 -1020 -23 -151 -30 -404 -16 -528 13 -114 40 -213 58
-219 21 -7 34 36 73 250 48 259 92 435 160 632 195 560 543 1126 1150 1870
555 680 799 999 1055 1385 181 272 299 467 408 672 39 76 74 138 77 138 3 0 3
-39 -1 -87 -4 -49 -15 -243 -23 -433 -26 -555 -53 -816 -111 -1075 -83 -369
-209 -652 -390 -870 -168 -203 -306 -296 -810 -545 -209 -104 -418 -212 -465
-240 -342 -208 -584 -486 -650 -746 -23 -90 -26 -182 -6 -209 15 -21 15 -22
111 142 128 218 333 395 635 547 69 35 251 114 405 176 577 230 824 379 1041
627 272 311 441 721 514 1243 37 264 41 398 38 1173 -3 828 4 982 58 1187 27
98 44 260 28 260 -5 0 -23 -12 -41 -25z"/>
<path d="M7170 5719 c-589 -68 -1043 -436 -1230 -998 -83 -248 -116 -504 -107
-825 8 -288 45 -487 134 -711 155 -394 496 -714 893 -839 279 -88 681 -93 965
-10 419 121 710 413 868 870 19 55 37 111 39 123 3 21 -15 29 -320 126 -206
65 -325 99 -327 91 -105 -363 -212 -519 -430 -627 -219 -108 -519 -90 -730 46
-210 134 -329 347 -382 687 -27 172 -24 590 5 748 63 344 204 557 447 675 129
62 204 79 360 79 222 0 367 -56 511 -199 89 -88 139 -169 175 -280 12 -38 24
-72 25 -74 3 -3 655 149 662 155 7 5 -63 195 -103 279 -61 125 -117 207 -208
301 -170 178 -405 306 -660 358 -168 35 -410 45 -587 25z"/>
<path d="M19465 5689 c-86 -14 -214 -60 -273 -99 -84 -54 -157 -138 -199 -227
-34 -71 -37 -85 -41 -189 -6 -142 15 -218 86 -320 110 -155 226 -215 619 -318
319 -83 366 -105 410 -194 21 -44 25 -61 20 -103 -21 -173 -213 -276 -463
-248 -180 20 -297 125 -350 316 l-16 59 -172 -18 c-94 -9 -181 -17 -193 -17
-26 -1 -25 -8 8 -146 57 -236 213 -409 437 -485 185 -61 482 -66 690 -10 178
49 325 163 395 310 47 98 60 155 60 270 0 178 -45 294 -157 405 -112 111 -214
155 -580 251 -299 78 -396 129 -416 218 -20 89 42 170 157 207 95 30 263 31
345 1 32 -11 70 -30 85 -42 42 -33 82 -98 100 -163 l17 -58 165 6 c91 3 181 8
199 11 l34 5 -7 52 c-34 274 -213 458 -502 516 -78 16 -136 21 -255 20 -84 -1
-175 -5 -203 -10z"/>
<path d="M9120 4000 l0 -1670 335 0 335 0 0 1670 0 1670 -335 0 -335 0 0
-1670z"/>
<path d="M10150 4001 l0 -1671 689 0 c838 0 981 9 1195 77 325 103 552 297
715 612 145 282 201 551 201 962 0 238 -11 375 -46 549 -64 320 -189 573 -385
775 -184 191 -387 295 -660 341 -92 16 -199 18 -906 21 l-803 4 0 -1670z
m1500 1086 c338 -66 522 -285 587 -698 25 -161 25 -624 0 -787 -37 -238 -113
-426 -213 -525 -63 -64 -179 -127 -279 -152 -104 -26 -279 -36 -605 -33 l-315
3 -3 1109 -2 1108 377 -5 c272 -4 399 -10 453 -20z"/>
<path d="M13770 4680 l0 -991 593 4 c652 4 652 4 780 68 242 122 356 467 239
719 -48 103 -174 207 -307 254 -16 6 -12 11 30 35 58 33 130 107 167 171 45
78 61 152 56 262 -4 88 -9 106 -42 172 -42 87 -126 177 -204 219 -28 15 -86
37 -129 49 -74 20 -103 22 -630 26 l-553 4 0 -992z m1068 626 c59 -33 86 -70
102 -140 24 -109 -28 -210 -132 -257 -51 -23 -63 -24 -345 -27 l-293 -4 0 232
0 231 308 -3 307 -3 53 -29z m-2 -779 c124 -41 179 -118 179 -252 0 -99 -26
-154 -97 -202 -72 -47 -118 -53 -448 -53 l-300 0 0 266 0 266 308 -4 c249 -4
317 -8 358 -21z"/>
<path d="M15660 5495 l0 -175 190 0 190 0 0 175 0 175 -190 0 -190 0 0 -175z"/>
<path d="M22230 5495 l0 -175 190 0 190 0 0 175 0 175 -190 0 -190 0 0 -175z"/>
<path d="M16815 5135 c-296 -65 -500 -292 -546 -607 -24 -162 7 -363 78 -508
48 -99 167 -220 268 -272 246 -127 553 -125 773 4 82 48 211 179 257 261 65
118 87 203 93 358 9 261 -56 431 -227 591 -142 134 -291 189 -510 187 -69 0
-153 -7 -186 -14z m319 -314 c96 -42 179 -149 207 -267 6 -27 12 -94 12 -149
1 -205 -66 -339 -206 -412 -45 -24 -63 -28 -142 -28 -78 0 -97 4 -146 28 -138
67 -209 207 -209 407 1 237 85 378 263 436 55 18 163 11 221 -15z"/>
<path d="M21161 5135 c-181 -40 -346 -171 -426 -341 -56 -117 -69 -192 -69
-394 0 -173 2 -191 27 -273 33 -106 51 -143 111 -224 82 -111 210 -195 352
-229 102 -25 314 -23 417 5 203 54 344 190 413 399 15 45 25 85 21 88 -5 5
-328 64 -353 64 -6 0 -18 -26 -27 -58 -23 -84 -72 -151 -132 -182 -42 -21 -63
-25 -135 -25 -75 0 -91 3 -138 30 -132 72 -178 200 -170 468 6 179 25 237 104
314 64 64 134 88 229 81 118 -10 194 -73 229 -189 l11 -36 178 32 c97 18 180
35 183 38 9 9 -15 75 -55 152 -73 142 -213 246 -376 280 -88 18 -308 18 -394
0z"/>
<path d="M23314 5131 c-113 -32 -174 -69 -265 -160 -71 -70 -94 -101 -127
-171 -57 -121 -73 -192 -79 -360 -8 -226 27 -375 125 -523 115 -175 303 -262
567 -261 232 1 390 68 511 216 39 46 121 195 112 203 -2 1 -75 15 -163 29 -88
14 -172 29 -186 32 -23 4 -28 0 -44 -42 -39 -103 -118 -158 -230 -158 -122 -1
-218 62 -271 179 -23 49 -46 163 -37 178 2 4 218 7 479 7 l474 0 0 63 c0 160
-43 358 -103 472 -41 79 -164 201 -244 243 -98 51 -196 72 -337 71 -84 0 -140
-6 -182 -18z m283 -276 c67 -20 143 -88 172 -154 26 -62 43 -171 27 -177 -6
-2 -135 -3 -286 -2 l-275 3 2 57 c3 100 59 197 139 244 77 45 139 53 221 29z"/>
<path d="M25061 5134 c-84 -23 -169 -73 -246 -146 -38 -38 -71 -68 -72 -68 -2
0 -3 45 -3 100 l0 100 -175 0 -175 0 0 -715 0 -715 190 0 190 0 0 404 c0 229
5 437 11 480 19 139 63 207 166 258 56 27 77 32 138 32 99 0 156 -34 200 -119
l30 -59 3 -498 3 -498 190 0 189 0 0 504 c0 299 -4 536 -11 583 -33 244 -199
374 -474 372 -55 0 -124 -7 -154 -15z"/>
<path d="M26391 5135 c-230 -50 -408 -229 -473 -474 -28 -109 -35 -317 -14
-439 50 -290 222 -485 482 -548 102 -25 314 -23 417 5 150 40 255 113 335 236
47 72 113 237 100 250 -6 6 -328 65 -354 65 -6 0 -18 -26 -27 -58 -23 -84 -72
-151 -132 -182 -42 -21 -63 -25 -135 -25 -77 0 -90 3 -140 31 -69 39 -111 93
-142 181 -21 62 -23 85 -23 248 1 165 3 185 24 240 33 83 106 154 185 179 106
33 222 9 288 -61 29 -31 67 -107 68 -136 0 -13 5 -17 18 -13 9 3 82 16 162 31
208 36 193 31 186 63 -4 15 -25 64 -47 110 -77 157 -210 260 -384 297 -88 18
-307 18 -394 0z"/>
<path d="M27847 5134 c-107 -26 -185 -72 -277 -164 -97 -96 -144 -179 -182
-316 -18 -67 -21 -106 -21 -254 -1 -150 3 -186 21 -255 71 -254 214 -403 449
-466 104 -28 317 -31 413 -6 146 39 257 112 334 220 43 60 102 174 95 181 -2
2 -76 16 -164 30 -88 14 -171 29 -185 31 -22 5 -28 1 -39 -32 -48 -132 -164
-194 -300 -159 -139 36 -224 139 -238 292 l-6 64 478 0 478 0 -6 118 c-9 187
-49 340 -118 451 -44 72 -146 167 -220 206 -103 54 -200 75 -338 74 -64 0
-142 -7 -174 -15z m306 -292 c55 -25 107 -76 134 -134 26 -54 48 -167 36 -179
-5 -5 -135 -8 -289 -7 l-279 3 3 53 c11 215 209 346 395 264z"/>
<path d="M3635 5123 c-11 -3 -105 -37 -210 -75 -104 -38 -322 -115 -485 -170
-370 -125 -537 -191 -715 -281 -653 -331 -968 -814 -916 -1405 6 -70 22 -175
36 -235 49 -217 152 -471 222 -544 30 -33 35 -35 49 -21 21 21 20 155 -2 421
-46 563 35 854 316 1136 187 186 396 316 884 545 405 191 561 280 727 414 106
85 177 175 165 208 -5 14 -32 16 -71 7z"/>
<path d="M15660 4405 l0 -715 190 0 190 0 0 715 0 715 -190 0 -190 0 0 -715z"/>
<path d="M22230 4405 l0 -715 190 0 190 0 0 715 0 715 -190 0 -190 0 0 -715z"/>
<path d="M17950 4405 l0 -185 370 0 370 0 0 185 0 185 -370 0 -370 0 0 -185z"/>
<path d="M29415 3956 c-44 -19 -64 -46 -74 -100 -11 -58 2 -123 31 -154 56
-58 170 -47 205 21 17 33 17 33 -18 42 -21 5 -27 2 -37 -19 -14 -31 -55 -43
-88 -26 -48 26 -57 137 -13 181 27 27 73 25 96 -5 15 -18 26 -23 46 -19 15 3
27 8 27 12 0 18 -36 55 -66 67 -41 17 -70 17 -109 0z"/>
<path d="M28930 3815 l0 -145 25 0 25 0 0 145 0 145 -25 0 -25 0 0 -145z"/>
<path d="M29050 3815 l0 -145 25 0 c24 0 24 2 27 91 l3 92 55 -89 c49 -79 59
-89 88 -92 l32 -3 0 145 0 146 -25 0 c-25 0 -25 0 -25 -96 0 -52 -4 -93 -9
-90 -5 3 -33 46 -62 96 -47 78 -58 89 -81 90 l-28 0 0 -145z"/>
<path d="M29630 3695 c0 -20 5 -25 25 -25 20 0 25 5 25 25 0 20 -5 25 -25 25
-20 0 -25 -5 -25 -25z"/>
<path d="M13790 3080 l0 -40 125 0 125 0 0 -340 0 -340 50 0 50 0 0 340 0 340
130 0 130 0 0 40 0 40 -305 0 -305 0 0 -40z"/>
<path d="M15560 2740 l0 -380 45 0 45 0 0 380 0 380 -45 0 -45 0 0 -380z"/>
<path d="M16910 2740 l0 -380 45 0 45 0 0 183 c0 219 11 255 82 287 52 24 78
25 124 5 57 -24 64 -54 64 -280 l0 -195 45 0 45 0 0 203 c0 213 -8 267 -43
305 -63 69 -204 77 -276 16 -16 -13 -32 -24 -35 -24 -3 0 -6 59 -6 130 l0 130
-45 0 -45 0 0 -380z"/>
<path d="M20380 2740 l0 -380 45 0 45 0 0 108 0 108 35 34 c19 18 36 32 38 29
2 -2 44 -66 92 -141 l88 -138 54 0 c29 0 53 2 53 5 0 3 -49 79 -110 170 -60
91 -110 168 -110 172 0 4 44 52 97 105 l98 98 -55 0 -55 0 -112 -112 -113
-113 0 218 0 217 -45 0 -45 0 0 -380z"/>
<path d="M21970 2740 l0 -380 45 0 45 0 0 183 c0 219 11 255 82 287 52 24 78
25 124 5 57 -24 64 -54 64 -280 l0 -195 45 0 45 0 0 203 c0 213 -8 267 -43
305 -66 72 -207 77 -283 10 l-34 -30 0 136 0 136 -45 0 -45 0 0 -380z"/>
<path d="M28060 2740 l0 -380 45 0 45 0 0 108 0 108 33 32 c18 18 35 32 39 32
3 0 45 -63 94 -140 l89 -139 58 -1 57 0 -117 176 -117 176 104 98 105 99 -60
1 -60 0 -105 -105 c-58 -58 -108 -105 -112 -105 -5 0 -8 95 -8 210 l0 210 -45
0 -45 0 0 -380z"/>
<path d="M16673 3081 l-42 -25 -3 -71 -3 -70 -32 -3 c-30 -3 -33 -6 -33 -38 0
-32 2 -34 34 -34 l35 0 3 -214 c3 -208 4 -215 26 -239 26 -27 85 -41 136 -31
31 5 32 7 27 42 -6 34 -10 37 -41 40 -60 6 -60 7 -60 213 l0 189 45 0 c45 0
45 0 45 35 0 35 0 35 -45 35 l-44 0 -3 98 -3 98 -42 -25z"/>
<path d="M18138 3077 l-38 -22 0 -72 0 -73 -35 0 c-33 0 -35 -2 -35 -35 0 -33
2 -35 35 -35 l35 0 1 -197 c1 -109 4 -209 8 -222 12 -42 55 -66 121 -66 32 0
61 3 63 5 2 3 2 22 -1 43 -4 36 -6 37 -43 37 -28 0 -41 5 -49 19 -6 12 -10 95
-10 200 l0 181 50 0 50 0 0 34 c0 34 -1 35 -47 38 l-48 3 -3 93 c-1 50 -6 92
-10 92 -4 -1 -24 -11 -44 -23z"/>
<path d="M14520 2921 c-141 -29 -207 -133 -198 -310 5 -100 26 -148 87 -204
50 -45 106 -61 194 -54 86 6 149 42 192 111 27 45 30 58 33 156 4 93 1 113
-18 158 -24 55 -74 106 -124 127 -42 17 -123 25 -166 16z m147 -99 c44 -31 67
-85 71 -170 5 -89 -14 -148 -63 -191 -65 -57 -157 -51 -214 14 -83 95 -61 302
39 356 46 25 125 21 167 -9z"/>
<path d="M15120 2919 c-82 -16 -157 -86 -180 -168 -15 -54 -12 -192 5 -240 35
-99 104 -151 214 -159 131 -9 234 54 266 161 19 65 19 191 0 248 -42 121 -166
186 -305 158z m138 -88 c52 -26 84 -87 90 -170 5 -83 -10 -141 -49 -186 -77
-88 -209 -63 -260 50 -21 46 -25 154 -7 206 35 105 132 148 226 100z"/>
<path d="M15923 2920 c-99 -20 -143 -69 -143 -158 0 -77 36 -111 156 -147 146
-44 170 -54 181 -78 16 -35 -8 -84 -51 -102 -80 -34 -167 -8 -201 60 -19 37
-23 40 -55 37 -50 -5 -54 -14 -32 -64 37 -83 102 -118 223 -118 131 0 228 85
215 188 -11 83 -40 105 -206 152 -53 15 -106 33 -118 39 -44 24 -36 87 15 110
13 6 48 11 77 11 59 0 100 -24 117 -67 6 -17 14 -23 25 -19 9 3 28 6 44 6 27
0 28 1 20 31 -5 17 -17 43 -25 56 -32 49 -153 80 -242 63z"/>
<path d="M17658 2920 c-88 -15 -149 -63 -168 -130 -7 -24 -5 -29 13 -34 49
-13 66 -7 83 29 9 20 29 42 45 50 36 19 120 19 164 1 40 -17 55 -42 55 -90 0
-32 -3 -36 -37 -45 -21 -6 -82 -17 -135 -24 -54 -8 -112 -23 -129 -33 -121
-71 -104 -250 26 -285 22 -6 71 -9 108 -6 53 3 78 11 118 36 28 17 52 31 54
31 2 0 8 -13 14 -30 9 -27 14 -30 55 -30 50 0 51 1 34 33 -7 13 -13 103 -17
234 l-6 212 -29 30 c-16 17 -43 35 -60 40 -48 15 -136 20 -188 11z m188 -386
c-9 -34 -56 -85 -93 -100 -18 -8 -55 -14 -83 -14 -44 0 -56 5 -81 29 -31 31
-36 55 -18 94 15 34 38 44 159 68 58 11 107 23 110 26 7 7 12 -77 6 -103z"/>
<path d="M19590 2919 c-69 -14 -129 -56 -163 -117 -24 -43 -30 -68 -34 -135
-13 -209 92 -328 278 -315 110 8 188 67 219 163 18 54 18 179 1 238 -17 58
-78 130 -128 150 -53 20 -120 27 -173 16z m148 -95 c15 -11 37 -40 50 -65 21
-39 23 -55 20 -134 -4 -109 -26 -152 -92 -184 -108 -53 -206 8 -229 142 -19
112 13 202 87 249 40 25 124 20 164 -8z"/>
<path d="M20190 2919 c-14 -5 -40 -26 -57 -47 l-33 -37 0 38 c0 37 0 37 -40
37 l-40 0 0 -275 0 -275 45 0 45 0 0 168 c0 190 13 259 55 286 27 18 77 21
105 6 15 -8 20 -5 28 18 5 15 13 35 17 44 5 13 1 20 -16 27 -44 16 -84 20
-109 10z"/>
<path d="M22710 2919 c-101 -20 -174 -107 -188 -222 -25 -205 60 -333 228
-345 86 -6 145 10 195 51 37 30 79 103 69 119 -3 4 -24 8 -47 8 -39 0 -44 -3
-62 -37 -32 -59 -115 -88 -182 -62 -58 22 -112 99 -113 162 l0 27 206 0 207 0
-5 68 c-12 167 -141 264 -308 231z m161 -105 c31 -29 43 -51 55 -99 l6 -25
-161 0 -161 0 6 28 c10 45 38 85 75 110 28 20 44 23 92 20 46 -4 63 -10 88
-34z"/>
<path d="M23310 2919 c-14 -5 -40 -26 -57 -47 l-33 -37 0 38 c0 37 0 37 -40
37 l-40 0 0 -275 0 -275 44 0 44 0 4 188 c4 200 11 232 60 266 25 18 70 21 98
6 15 -8 20 -3 35 32 16 40 16 43 -1 55 -10 7 -25 13 -33 13 -9 0 -25 2 -36 5
-11 2 -31 0 -45 -6z"/>
<path d="M23663 2920 c-127 -26 -203 -132 -203 -285 0 -177 98 -285 259 -285
31 0 73 5 94 11 63 17 147 105 147 154 0 11 -11 15 -44 15 -40 0 -46 -3 -64
-34 -78 -132 -279 -74 -294 84 l-3 35 209 3 209 2 -7 61 c-3 34 -14 80 -24
102 -20 44 -87 112 -125 126 -38 14 -111 19 -154 11z m127 -85 c37 -19 70 -66
77 -110 l6 -35 -157 0 c-176 0 -173 -2 -136 75 36 74 137 108 210 70z"/>
<path d="M25040 2919 c-82 -16 -157 -86 -180 -168 -15 -55 -12 -191 6 -243 17
-51 68 -109 117 -134 48 -25 154 -30 215 -10 64 22 125 81 146 143 18 53 21
189 6 245 -34 122 -171 195 -310 167z m140 -87 c51 -27 90 -107 90 -186 0 -86
-16 -135 -59 -177 -65 -65 -160 -62 -220 6 -65 75 -70 229 -10 316 39 56 133
75 199 41z"/>
<path d="M27273 2920 c-59 -12 -94 -33 -136 -79 -45 -50 -61 -104 -61 -211 0
-134 42 -210 139 -256 69 -33 161 -33 230 0 105 48 152 144 143 291 -6 91 -27
141 -80 192 -57 55 -150 80 -235 63z m126 -85 c70 -36 109 -129 97 -232 -17
-146 -124 -219 -236 -161 -65 34 -90 87 -90 192 0 97 25 157 79 193 40 27 107
31 150 8z"/>
<path d="M27864 2916 c-18 -8 -40 -28 -50 -45 -24 -40 -34 -39 -34 4 0 34 -1
35 -40 35 l-40 0 0 -275 0 -275 44 0 44 0 4 183 c5 199 15 241 62 272 20 14
38 16 75 11 46 -6 49 -5 55 18 3 13 9 31 12 39 12 31 -82 54 -132 33z"/>
<path d="M18593 2903 c3 -5 35 -107 71 -228 37 -121 74 -241 82 -267 l16 -48
47 0 48 0 53 203 c29 111 55 206 58 210 2 5 24 -67 48 -160 24 -92 49 -187 55
-210 l11 -43 48 0 c46 0 49 2 59 33 5 17 42 135 82 261 39 127 73 236 76 243
4 9 -7 13 -40 13 l-45 0 -20 -67 c-11 -38 -39 -132 -63 -211 -23 -78 -44 -140
-46 -138 -2 2 -28 95 -57 207 l-52 204 -50 3 -49 3 -54 -208 c-30 -114 -57
-211 -60 -215 -4 -4 -33 89 -65 207 l-59 215 -49 0 c-27 0 -47 -3 -45 -7z"/>
<path d="M21132 2898 c2 -7 40 -131 84 -276 l79 -263 49 3 49 3 52 195 c63
239 61 233 70 195 4 -16 28 -111 54 -210 l48 -180 49 0 49 0 82 260 c45 143
82 266 82 273 1 9 -11 12 -41 10 l-43 -3 -59 -202 c-33 -112 -63 -203 -67
-203 -4 0 -12 21 -18 48 -7 26 -30 118 -53 205 l-41 157 -48 0 c-47 0 -48 -1
-58 -37 -6 -21 -32 -118 -58 -215 -25 -98 -49 -176 -51 -173 -3 2 -30 98 -62
212 l-57 208 -48 3 c-36 2 -47 0 -43 -10z"/>
<path d="M24320 2902 c0 -6 45 -129 101 -273 l100 -264 -16 -51 c-20 -69 -45
-89 -106 -89 l-48 0 6 -40 c3 -22 7 -42 9 -44 2 -2 26 -3 53 -3 60 0 91 17
125 70 21 32 266 671 266 693 0 5 -19 9 -43 9 l-42 0 -73 -200 c-39 -109 -72
-206 -72 -214 0 -34 -18 -23 -29 17 -6 23 -39 121 -74 217 l-64 175 -46 3
c-26 2 -47 -1 -47 -6z"/>
<path d="M25472 2681 c3 -214 4 -232 24 -257 36 -49 70 -67 133 -72 71 -5 121
10 167 50 l34 30 0 -36 c0 -35 1 -36 40 -36 l40 0 0 275 0 275 -45 0 -45 0 0
-186 c0 -152 -3 -192 -16 -221 -42 -87 -178 -105 -224 -30 -18 29 -20 52 -20
235 l0 202 -46 0 -45 0 3 -229z"/>
<path d="M26282 2893 c3 -10 40 -134 84 -275 l78 -258 48 0 47 0 15 53 c8 28
33 121 55 206 22 84 42 155 44 157 2 3 28 -90 58 -206 l54 -211 49 3 50 3 83
265 c45 146 83 268 83 273 0 4 -19 7 -42 7 l-43 0 -59 -203 c-33 -111 -62
-205 -66 -210 -3 -4 -30 87 -60 203 l-53 210 -48 0 c-48 0 -48 0 -60 -42 -6
-24 -33 -122 -59 -218 -27 -96 -50 -168 -53 -160 -4 8 -27 92 -52 185 -70 259
-59 235 -112 235 -38 0 -45 -3 -41 -17z"/>
<path d="M28620 2410 l0 -50 50 0 50 0 0 50 0 50 -50 0 -50 0 0 -50z"/>
</g>
</svg>
